<svg xmlns="http://www.w3.org/2000/svg" version="1.1" xmlns:xlink="http://www.w3.org/1999/xlink" width="512" height="512" x="0" y="0" viewBox="0 0 512 512" style="enable-background:new 0 0 512 512" xml:space="preserve" class=""><g><path d="M483.73 428.03h-21.96V153.09c0-3.31-2.69-6-6-6h-50.04c-3.31 0-6 2.69-6 6v274.94h-27.18V247.82c0-3.31-2.69-6-6-6h-50.04c-3.31 0-6 2.69-6 6v180.21h-16.79v-17.12c0-5.39-4.12-9.45-10.39-12.53v-199.4c0-3.31-2.69-6-6-6h-50.04c-3.31 0-6 2.69-6 6v189.9c-2.13 0-8.75.05-17.18.6-2.34-7.41-5.88-14.52-10.22-21.37h.21V296.7c0-3.31-2.69-6-6-6h-42.5c5.44-10.75 8.56-22.57 9.48-35.9.15-2.16-.88-4.23-2.69-5.43-16.73-11.01-36.09-15.77-57.55-14.15-1.64.12-3.15.91-4.19 2.18s-1.51 2.91-1.31 4.54c.25 2.04.56 4.07.9 6.08-7.96-.77-16.02 1.93-24.39 8.13a5.992 5.992 0 0 0-1.94 7.18c5.48 12.79 13.16 24.06 22.87 33.54v14.54c-3.27 3.3-6.71 6.67-10.34 10.23-25.39 24.85-54.17 53.01-54.17 87.1 0 44.56 41.48 80.81 92.46 80.81 12.93 0 25.79-2.39 37.53-6.93 13.32 13.92 62.67 14.38 69.08 14.38 7.41 0 72.39-.62 72.39-22.02V440.02h190.01c3.31 0 6-2.69 6-6s-2.69-5.99-6.01-5.99zm-202.01 14.36c-3.05 3.91-25.12 10.57-60.39 10.57s-57.35-6.66-60.39-10.57v-18.22c19.14 8.42 55 8.75 60.39 8.75s41.24-.33 60.39-8.75zm-.53-31.49c-4.61 3.96-26.26 10.02-59.85 10.02s-55.24-6.06-59.85-10.02c4.61-3.96 26.26-10.02 59.85-10.02s55.24 6.07 59.85 10.02zm-9.86-205.92v189.17c-12.49-3.22-27.59-4.47-38.04-4.96V204.98zm-89.22 147.13c-9-10.82-19.34-20.94-29.09-30.47-3.63-3.55-7.07-6.92-10.34-10.22v-8.72h39.42v49.41zm-51.42-51.8v8.32H98.77v-8.32zm12.11-42.79c-1.2 11.49-4.35 21.61-9.53 30.79h-15.25c-7.98-12.82-13.19-26.44-15.81-41.39 15.05-.15 28.41 3.33 40.59 10.6zm-65.79 5.6c5.77-3.35 10.83-4.06 16.06-2.28 2.63 9.58 6.33 18.75 11.07 27.46h-8.93c-7.43-7.25-13.55-15.69-18.2-25.18zM34.27 408.74c0-29.05 26.86-55.33 50.56-78.53 3.39-3.31 6.61-6.47 9.71-9.59h40.38c3.1 3.12 6.33 6.27 9.71 9.59 18.48 18.09 39.2 38.37 47.18 60.35-20.11 2.29-42.86 7.67-42.86 20.34v60.11c-10.64 4.28-22.39 6.53-34.22 6.53-44.37.01-80.46-30.86-80.46-68.8zM221.34 485c-35.22 0-57.29-6.64-60.39-10.55v-18.23c19.14 8.42 55 8.75 60.39 8.75s41.24-.33 60.39-8.75v18.23c-3.1 3.91-25.17 10.55-60.39 10.55zm190.39-325.91h38.04v268.94h-38.04zm-89.22 94.73h38.04v174.21h-38.04zM110.7 207.35a6.003 6.003 0 0 1 .42-8.47L249.99 73.22a5.997 5.997 0 0 1 7.9-.13l74.16 62.64L423.5 27h-30.82c-3.31 0-6-2.69-6-6s2.69-6 6-6h43.71c3.31 0 6 2.69 6 6v51.96c0 3.31-2.69 6-6 6s-6-2.69-6-6V37.45l-93.03 110.6a6.042 6.042 0 0 1-4.08 2.12c-1.59.13-3.17-.37-4.38-1.4l-74.75-63.14-134.97 122.14a5.976 5.976 0 0 1-4.02 1.55c-1.64 0-3.27-.66-4.46-1.97zm28.21 208.62c0 10.26-7.72 18.92-18.18 21.49v10.64c0 3.31-2.69 6-6 6s-6-2.69-6-6v-10.44c-8.17-1.7-14.98-7.1-17.79-14.5a6.01 6.01 0 0 1 3.49-7.74 6.01 6.01 0 0 1 7.74 3.49c1.63 4.31 6.61 7.33 12.1 7.33 6.85 0 12.64-4.71 12.64-10.27 0-.87-.13-5.25-2.75-6.29l-11.51-4.59-9.37-3.21c-7.73-2.65-12.72-10.07-12.72-18.92 0-10.26 7.71-18.92 18.17-21.49v-10.64c0-3.31 2.69-6 6-6s6 2.69 6 6v10.43c8.17 1.7 14.98 7.1 17.79 14.5a6.01 6.01 0 0 1-3.49 7.74 6.01 6.01 0 0 1-7.74-3.49c-1.63-4.31-6.61-7.33-12.1-7.33-6.85 0-12.64 4.71-12.64 10.27 0 2.89 1.21 6.4 4.61 7.57l9.51 3.26c.09.03.18.07.28.1l11.64 4.64c6.46 2.59 10.32 9.11 10.32 17.45z" fill="#ffffff" opacity="1" data-original="#000000" class=""></path></g></svg>