<svg xmlns="http://www.w3.org/2000/svg" version="1.1" xmlns:xlink="http://www.w3.org/1999/xlink" width="512" height="512" x="0" y="0" viewBox="0 0 512 512" style="enable-background:new 0 0 512 512" xml:space="preserve"><g><path d="M358.18 358.18c-15.91 15.91-24.67 37.07-24.67 59.57s8.76 43.66 24.67 59.57c16.42 16.42 38 24.64 59.57 24.64s43.15-8.21 59.57-24.64c15.91-15.91 24.67-37.07 24.67-59.57s-8.76-43.66-24.67-59.57c-32.84-32.84-86.29-32.84-119.14 0zm15.93 117.13c3.79-17.15 19.14-29.7 36.99-29.7h13.31c17.85 0 33.2 12.56 36.99 29.7-25.71 19.52-61.58 19.52-87.29 0zm43.64-44.43c-12.22 0-22.16-9.94-22.16-22.16s9.94-22.16 22.16-22.16 22.16 9.94 22.16 22.16-9.93 22.16-22.16 22.16zm53.49 35.44c-5.43-14.76-17.61-26.13-32.58-30.62 8.06-6.26 13.26-16.02 13.26-26.99 0-18.84-15.33-34.16-34.16-34.16-18.84 0-34.16 15.33-34.16 34.16 0 10.97 5.2 20.74 13.26 26.99-14.96 4.49-27.15 15.85-32.58 30.62-12.12-13.32-18.76-30.43-18.76-48.57 0-19.3 7.51-37.44 21.16-51.09 28.17-28.17 74-28.17 102.17 0 13.65 13.65 21.16 31.79 21.16 51.09-.01 18.14-6.65 35.25-18.77 48.57zM94.25 178.49c22.5 0 43.66-8.76 59.57-24.67 32.85-32.85 32.85-86.29 0-119.14C137.9 18.76 116.75 10 94.25 10s-43.66 8.76-59.57 24.67c-32.85 32.85-32.85 86.29 0 119.14 15.91 15.92 37.06 24.68 59.57 24.68zM50.6 151.81c3.78-17.15 19.14-29.72 36.99-29.72h13.31c17.85 0 33.21 12.56 36.99 29.72-12.5 9.51-27.67 14.68-43.64 14.68-15.98 0-31.15-5.16-43.65-14.68zm43.65-44.44c-12.22 0-22.16-9.94-22.16-22.16s9.94-22.16 22.16-22.16 22.16 9.94 22.16 22.16-9.94 22.16-22.16 22.16zM43.16 43.16C56.81 29.51 74.95 22 94.25 22s37.44 7.52 51.08 21.16c27.34 27.34 28.14 71.33 2.4 99.65-5.43-14.76-17.61-26.12-32.58-30.61 8.06-6.26 13.26-16.02 13.26-26.99 0-18.84-15.33-34.16-34.16-34.16-18.84 0-34.16 15.33-34.16 34.16 0 10.97 5.2 20.74 13.26 26.99-14.96 4.49-27.14 15.85-32.58 30.61-25.75-28.32-24.95-72.31 2.39-99.65zm374.59 135.29c21.57 0 43.15-8.21 59.57-24.63 32.85-32.85 32.85-86.29 0-119.14-32.85-32.85-86.29-32.85-119.14 0s-32.85 86.29 0 119.14c16.43 16.42 38 24.63 59.57 24.63zm-43.64-26.65c3.79-17.15 19.14-29.7 36.99-29.7h13.31c17.85 0 33.2 12.56 36.99 29.7-12.85 9.76-28.24 14.66-43.64 14.65-15.4.01-30.8-4.89-43.65-14.65zm43.64-44.43c-12.22 0-22.16-9.94-22.16-22.16s9.94-22.16 22.16-22.16 22.16 9.94 22.16 22.16-9.93 22.16-22.16 22.16zm-51.08-64.21c14.08-14.08 32.58-21.13 51.08-21.13s37 7.04 51.09 21.13c27.34 27.34 28.14 71.33 2.4 99.65-5.43-14.76-17.61-26.12-32.58-30.61 8.06-6.26 13.26-16.02 13.26-26.99 0-18.84-15.33-34.16-34.16-34.16-18.84 0-34.16 15.33-34.16 34.16 0 10.97 5.2 20.74 13.26 26.99-14.96 4.49-27.14 15.85-32.58 30.61-25.75-28.32-24.95-72.31 2.39-99.65zm-332 315.02C18.76 374.1 10 395.25 10 417.75s8.76 43.66 24.67 59.57c16.43 16.43 37.99 24.64 59.57 24.64 21.57 0 43.15-8.21 59.57-24.63 15.91-15.91 24.68-37.07 24.68-59.57s-8.76-43.66-24.68-59.57c-32.84-32.85-86.29-32.85-119.14-.01zM50.6 475.31c3.79-17.15 19.14-29.7 36.99-29.7h13.31c17.85 0 33.2 12.56 36.99 29.7-25.71 19.52-61.58 19.52-87.29 0zm43.65-44.43c-12.22 0-22.16-9.94-22.16-22.16s9.94-22.16 22.16-22.16 22.16 9.94 22.16 22.16-9.94 22.16-22.16 22.16zm53.48 35.44c-5.43-14.76-17.61-26.13-32.58-30.62 8.06-6.26 13.26-16.02 13.26-26.99 0-18.84-15.33-34.16-34.16-34.16-18.84 0-34.16 15.33-34.16 34.16 0 10.97 5.2 20.74 13.26 26.99-14.96 4.49-27.15 15.85-32.58 30.62C28.64 453 22 435.89 22 417.75c0-19.3 7.51-37.44 21.16-51.09 14.08-14.08 32.58-21.13 51.08-21.13s37 7.04 51.09 21.13c13.65 13.65 21.16 31.79 21.16 51.09 0 18.14-6.64 35.25-18.76 48.57zM347.3 312.55c-2.6-3.32-3.01-7.4-1.13-11.17 2.2-4.4 4.09-9 5.62-13.67 1.3-3.98 4.43-6.59 8.58-7.14 6.06-.81 10.46-5.76 10.46-11.75V243.2c0-6.1-4.49-11.16-10.44-11.78-4.27-.44-7.5-3.03-8.87-7.1a99.209 99.209 0 0 0-5.59-13.34c-1.93-3.81-1.52-7.92 1.14-11.27 3.79-4.77 3.44-11.58-.82-15.84l-18.12-18.12c-4.28-4.28-11.24-4.65-15.83-.84-3.3 2.73-7.56 3.22-11.39 1.31-4.25-2.12-8.68-3.95-13.18-5.44-4.05-1.34-6.72-4.68-7.14-8.93-.6-6.08-5.67-10.67-11.79-10.67h-25.62c-6 0-11.06 4.49-11.76 10.44-.5 4.21-3.1 7.4-7.12 8.73-4.62 1.53-9.16 3.42-13.51 5.6-3.79 1.91-7.88 1.5-11.22-1.13-4.71-3.72-11.46-3.32-15.71.93l-18.12 18.12c-4.24 4.24-4.64 11-.93 15.71 2.63 3.34 3.04 7.43 1.13 11.22-2.19 4.35-4.07 8.89-5.6 13.51-1.33 4.03-4.52 6.62-8.73 7.12-5.95.71-10.44 5.76-10.44 11.76v25.62c0 6 4.49 11.06 10.44 11.76 4.21.5 7.4 3.1 8.73 7.12 1.53 4.62 3.42 9.16 5.6 13.51 1.91 3.79 1.5 7.88-1.14 11.22-3.71 4.71-3.31 11.46.93 15.71l18.12 18.12c4.24 4.25 11 4.64 15.71.93 3.34-2.63 7.43-3.04 11.22-1.13 4.35 2.19 8.9 4.08 13.51 5.61 4.03 1.33 6.62 4.52 7.12 8.73.71 5.95 5.76 10.44 11.76 10.44h25.62c6 0 11.06-4.49 11.76-10.44.5-4.21 3.1-7.4 7.12-8.73 4.61-1.53 9.16-3.41 13.51-5.6 3.8-1.91 7.89-1.5 11.22 1.13 4.71 3.71 11.46 3.31 15.71-.93l18.12-18.12c4.26-4.24 4.71-10.94 1.07-15.59zm-9.62 7.19-17.94 17.93c-6.93-5.39-16.08-6.29-23.93-2.34a87.88 87.88 0 0 1-11.89 4.93c-8.33 2.76-14.16 9.87-15.25 18.57h-25.35c-1.09-8.7-6.92-15.8-15.25-18.57-4.06-1.34-8.06-3-11.89-4.93-7.85-3.95-17.01-3.05-23.93 2.34l-17.92-17.92c5.39-6.92 6.29-16.08 2.34-23.93a87.349 87.349 0 0 1-4.93-11.89c-2.76-8.33-9.87-14.16-18.57-15.25v-25.35c8.7-1.08 15.8-6.92 18.56-15.25 1.35-4.06 3.01-8.06 4.93-11.89 3.95-7.85 3.05-17.01-2.34-23.93l17.92-17.92c6.93 5.39 16.08 6.29 23.93 2.34 3.83-1.93 7.83-3.59 11.89-4.93 8.33-2.76 14.16-9.87 15.25-18.57h25.35c.94 8.9 6.78 16.17 15.29 18.99 3.96 1.31 7.86 2.93 11.6 4.79 8.01 4 17.25 2.98 24.19-2.63l17.92 17.92c-5.52 6.96-6.46 16.22-2.44 24.14 1.92 3.78 3.57 7.73 4.92 11.75 2.81 8.36 9.95 14.15 18.68 15.17v25.35c-.02 0-.04.01-.06.01-8.77 1.18-15.64 6.9-18.39 15.31a89.284 89.284 0 0 1-4.94 12.04c-3.88 7.77-3.01 16.83 2.25 23.72zM206.7 206.7c-13.17 13.17-20.42 30.68-20.42 49.3s7.25 36.13 20.42 49.3c13.59 13.59 31.45 20.39 49.3 20.39s35.71-6.8 49.3-20.39c13.17-13.17 20.42-30.68 20.42-49.3s-7.25-36.13-20.42-49.3c-27.18-27.19-71.42-27.19-98.6 0zm15.01 95.73c3.23-13.11 15.1-22.64 28.87-22.64h10.84c13.77 0 25.65 9.53 28.87 22.64-10.15 7.51-22.22 11.26-34.29 11.26-12.07.01-24.14-3.75-34.29-11.26zM256 265.57c-9.34 0-16.94-7.6-16.94-16.94s7.6-16.94 16.94-16.94 16.94 7.6 16.94 16.94-7.6 16.94-16.94 16.94zm43.92 27.87c-4.57-10.88-13.59-19.33-24.64-23.25 5.92-5.3 9.65-13 9.65-21.55 0-15.96-12.98-28.94-28.94-28.94s-28.94 12.98-28.94 28.94c0 8.55 3.73 16.25 9.65 21.55-11.05 3.92-20.07 12.37-24.64 23.25-8.93-10.44-13.81-23.56-13.81-37.44 0-15.42 6-29.92 16.91-40.82 11.25-11.25 26.04-16.88 40.82-16.88s29.56 5.63 40.82 16.88c10.9 10.9 16.91 25.4 16.91 40.82.02 13.88-4.87 27-13.79 37.44zM226.55 45.45a6 6 0 0 1 0-8.48l25.21-25.21c2.34-2.34 6.14-2.34 8.49 0l25.21 25.21c2.34 2.34 2.34 6.14 0 8.48s-6.14 2.34-8.49 0L262 30.48v57.87c0 3.31-2.69 6-6 6s-6-2.69-6-6V30.49l-14.97 14.97a5.991 5.991 0 0 1-4.24 1.76c-1.54-.01-3.07-.6-4.24-1.77zm58.9 421.1a6 6 0 0 1 0 8.48l-25.21 25.21a5.991 5.991 0 0 1-8.48 0l-25.21-25.21c-2.34-2.34-2.34-6.14 0-8.49 2.34-2.34 6.14-2.34 8.49 0L250 481.52v-57.87c0-3.31 2.69-6 6-6s6 2.69 6 6v57.87l14.97-14.97a5.981 5.981 0 0 1 8.48 0zm181.1-189.58L481.51 262h-57.87c-3.31 0-6-2.69-6-6s2.69-6 6-6h57.87l-14.97-14.97a6 6 0 0 1 0-8.48c2.34-2.34 6.14-2.34 8.49 0l25.21 25.21a6 6 0 0 1 0 8.48l-25.21 25.21a5.991 5.991 0 0 1-8.48 0 5.981 5.981 0 0 1 0-8.48zM11.76 260.24C10.63 259.12 10 257.59 10 256s.63-3.12 1.76-4.24l25.21-25.21c2.34-2.34 6.14-2.34 8.49 0a6 6 0 0 1 0 8.48L30.49 250h57.87c3.31 0 6 2.69 6 6s-2.69 6-6 6H30.49l14.97 14.97a6 6 0 0 1-4.24 10.24c-1.53 0-3.07-.59-4.24-1.76z" fill="#ffffff" opacity="1" data-original="#000000"></path></g></svg>