<svg xmlns="http://www.w3.org/2000/svg" version="1.1" xmlns:xlink="http://www.w3.org/1999/xlink" width="512" height="512" x="0" y="0" viewBox="0 0 512 512" style="enable-background:new 0 0 512 512" xml:space="preserve"><g><path d="M504.001 59.544H392.416C387.842 25.966 358.998 0 324.185 0s-63.658 25.966-68.232 59.544h-36.85V33.392c0-20.253-38.585-29.478-74.435-29.478s-74.435 9.224-74.437 29.478v26.151H7.999a8 8 0 0 0-8 8v322.898a8 8 0 0 0 8 8h159.029c-3.266 21.604-12.495 41.351-28.58 61.302h-18.693c-14.406 0-26.127 11.721-26.127 26.127V504a8 8 0 0 0 8 8h308.744a8 8 0 0 0 8-8v-18.129c0-14.406-11.721-26.127-26.127-26.127h-18.693c-16.085-19.951-25.314-39.698-28.58-61.302h159.029a8 8 0 0 0 8-8V67.544a8 8 0 0 0-8-8zm-417.77-6.452c3.093 1.42 6.606 2.702 10.588 3.826 3.728 1.053 7.83 1.963 12.209 2.729 11.134 2.171 23.54 3.227 35.64 3.227 12.099 0 24.505-1.055 35.639-3.227 4.379-.767 8.48-1.677 12.208-2.729 3.981-1.124 7.495-2.406 10.587-3.826v19.146c0 .776-2.657 4.662-14.935 8.129-11.197 3.161-27.052 4.975-43.5 4.975s-32.304-1.813-43.501-4.975C88.888 76.9 86.23 73.014 86.23 72.238V53.092zm172.741 37.925h-39.87V75.544h36.528a68.412 68.412 0 0 0 3.342 15.473zM86.231 169.632c3.093 1.42 6.606 2.702 10.588 3.826 12.736 3.597 29.729 5.577 47.849 5.577 18.118 0 35.111-1.98 47.848-5.577 3.981-1.124 7.495-2.406 10.587-3.826v19.146c0 .776-2.657 4.662-14.935 8.129-11.197 3.161-27.052 4.975-43.5 4.975s-32.304-1.813-43.501-4.975c-12.278-3.467-14.936-7.353-14.936-8.129zm101.937-11.571c-11.197 3.161-27.052 4.975-43.5 4.975s-32.304-1.813-43.501-4.976c-12.278-3.467-14.936-7.353-14.936-8.129v-19.146c3.093 1.42 6.606 2.702 10.588 3.826 12.736 3.597 29.729 5.577 47.849 5.577 18.118 0 35.111-1.98 47.848-5.577 3.981-1.124 7.495-2.406 10.587-3.826v19.145c0 .777-2.658 4.664-14.935 8.131zm0-38.847c-11.197 3.161-27.052 4.975-43.5 4.975s-32.304-1.813-43.501-4.975c-12.278-3.467-14.936-7.353-14.936-8.129V91.938c3.093 1.42 6.606 2.702 10.588 3.826 12.736 3.597 29.729 5.577 47.849 5.577 18.118 0 35.111-1.98 47.848-5.577 3.981-1.124 7.495-2.406 10.587-3.826v19.146c0 .777-2.658 4.663-14.935 8.13zM70.231 188.778c0 10.63 8.945 18.545 26.588 23.526 12.736 3.597 29.729 5.577 47.849 5.577 18.118 0 35.111-1.98 47.848-5.577 17.642-4.981 26.587-12.896 26.587-23.526v-81.762h47.755c12.36 18.519 33.439 30.746 57.327 30.746s44.966-12.227 57.326-30.746h83.018v243.952H47.474V107.017h22.758v81.761zm287.325-78.912L338.17 76.888l38.287.017c-2.022 13.231-8.97 24.859-18.901 32.961zm18.907-48.961-44.279-.02v-44.28c22.774 3.471 40.818 21.522 44.279 44.3zm-60.278-44.3v52.277c0 1.426.381 2.825 1.104 4.054l26.482 45.051a52.57 52.57 0 0 1-19.586 3.776c-29.159 0-52.882-23.723-52.882-52.881 0-26.44 19.505-48.41 44.882-52.277zm-171.517 3.309c37.255 0 56.507 9.457 58.368 13.475-1.17 2.49-9.657 7.286-25.189 10.438-9.731 1.718-21.295 2.668-33.179 2.668-13.17 0-25.954-1.165-36.277-3.251-13.67-3.111-20.991-7.452-22.093-9.852 1.856-4.019 21.109-13.478 58.37-13.478zm257.704 465.957V496H109.628v-10.129c0-5.584 4.543-10.127 10.127-10.127h272.49c5.584 0 10.127 4.543 10.127 10.127zm-48.876-26.127H158.504c13.836-19.673 21.836-39.572 24.698-61.302h145.597c2.861 21.73 10.861 41.629 24.697 61.302zm142.505-77.302H15.999V75.544h54.232v15.473H39.474a8 8 0 0 0-8 8v259.952a8 8 0 0 0 8 8h433.055a8 8 0 0 0 8-8V99.017a8 8 0 0 0-8-8h-83.132a68.345 68.345 0 0 0 3.341-15.473h103.264v306.898zm-238.752-62.606h34.01a8 8 0 0 0 8-8V181.71a8 8 0 0 0-8-8h-34.01a8 8 0 0 0-8 8v130.126a8 8 0 0 0 8 8zm8-130.126h18.01v114.126h-18.01zm-71.151 130.125h34.01a8 8 0 0 0 8-8V243.81a8 8 0 0 0-8-8h-34.01a8 8 0 0 0-8 8v68.025a8 8 0 0 0 8 8zm8-68.025h18.01v52.025h-18.01zm118.301 68.026h34.011a8 8 0 0 0 8-8V204.904a8 8 0 0 0-8-8h-34.011a8 8 0 0 0-8 8v106.932a8 8 0 0 0 8 8zm8-106.932h18.011v90.932h-18.011zm55.151 106.931h34.01a8 8 0 0 0 8-8V146.149a8 8 0 0 0-8-8h-34.01a8 8 0 0 0-8 8v165.686a8 8 0 0 0 8 8zm8-165.686h18.01v149.686h-18.01zM102.06 284.323v-30.896a8 8 0 0 1 16 0v22.896h26.76l-4.339-5.01a8 8 0 0 1 12.096-10.474l17.016 19.648a8 8 0 0 1-.001 10.475l-17.016 19.647a7.982 7.982 0 0 1-6.051 2.763 8 8 0 0 1-6.043-13.237l6.765-7.812H110.06a8 8 0 0 1-8-8z" fill="#ffffff" opacity="1" data-original="#000000"></path></g></svg>